<?xml version="1.0" encoding="UTF-8"?>
<svg xmlns="http://www.w3.org/2000/svg" xmlns:xlink="http://www.w3.org/1999/xlink" width="128pt" height="96pt" viewBox="0 0 128 96" version="1.1">
<defs>
<clipPath id="clip1">
  <path d="M 45 35 L 128 35 L 128 67 L 45 67 Z M 45 35 "/>
</clipPath>
<clipPath id="clip2">
  <path d="M 45.5 40.5 C 45.5 37.738281 47.738281 35.5 50.5 35.5 L 167.5 35.5 C 170.261719 35.5 172.5 37.738281 172.5 40.5 L 172.5 61.5 C 172.5 64.261719 170.261719 66.5 167.5 66.5 L 50.5 66.5 C 47.738281 66.5 45.5 64.261719 45.5 61.5 Z M 45.5 40.5 "/>
</clipPath>
<clipPath id="clip3">
  <path d="M 0 35 L 128 35 L 128 67 L 0 67 Z M 0 35 "/>
</clipPath>
<clipPath id="clip4">
  <path d="M 0.5 40.5 C 0.5 37.738281 2.738281 35.5 5.5 35.5 L 122.5 35.5 C 125.261719 35.5 127.5 37.738281 127.5 40.5 L 127.5 61.5 C 127.5 64.261719 125.261719 66.5 122.5 66.5 L 5.5 66.5 C 2.738281 66.5 0.5 64.261719 0.5 61.5 Z M 0.5 40.5 "/>
</clipPath>
</defs>
<g id="surface2">
<path style="fill:none;stroke-width:1.5;stroke-linecap:butt;stroke-linejoin:miter;stroke:rgb(0%,0%,0%);stroke-opacity:0.266667;stroke-dasharray:10,4;stroke-dashoffset:1;stroke-miterlimit:10;" d="M 0.75 0.75 L 127.25 0.75 L 127.25 95.25 L 0.75 95.25 Z M 0.75 0.75 "/>
<path style="fill:none;stroke-width:1.5;stroke-linecap:butt;stroke-linejoin:miter;stroke:rgb(0%,0%,0%);stroke-opacity:0.2;stroke-dasharray:10,4;stroke-dashoffset:1;stroke-miterlimit:10;" d="M 10 10 L 118 10 L 118 86 L 10 86 Z M 10 10 "/>
<path style="fill:none;stroke-width:0.75;stroke-linecap:butt;stroke-linejoin:miter;stroke:rgb(0%,0%,0%);stroke-opacity:0.1;stroke-miterlimit:10;" d="M 45 35 L 0 35 "/>
<path style="fill:none;stroke-width:0.75;stroke-linecap:butt;stroke-linejoin:miter;stroke:rgb(0%,0%,0%);stroke-opacity:0.1;stroke-miterlimit:10;" d="M 85 35 L 40 35 M 45 65 L 0 65 "/>
<path style="fill:none;stroke-width:0.75;stroke-linecap:butt;stroke-linejoin:miter;stroke:rgb(0%,0%,0%);stroke-opacity:0.1;stroke-miterlimit:10;" d="M 85 65 L 40 65 "/>
<g clip-path="url(#clip1)" clip-rule="nonzero">
<g clip-path="url(#clip2)" clip-rule="nonzero">
<rect x="0" y="0" width="128" height="96" style="fill:rgb(38.039216%,50.588235%,100%);fill-opacity:0.490196;stroke:none;"/>
<path style="fill:none;stroke-width:1;stroke-linecap:butt;stroke-linejoin:miter;stroke:rgb(38.039216%,50.588235%,100%);stroke-opacity:1;stroke-miterlimit:10;" d="M 0.5 5.5 C 0.5 2.738281 2.738281 0.5 5.5 0.5 L 122.5 0.5 C 125.261719 0.5 127.5 2.738281 127.5 5.5 L 127.5 26.5 C 127.5 29.261719 125.261719 31.5 122.5 31.5 L 5.5 31.5 C 2.738281 31.5 0.5 29.261719 0.5 26.5 Z M 0.5 5.5 " transform="matrix(1,0,0,1,45,35)"/>
</g>
</g>
<g clip-path="url(#clip3)" clip-rule="nonzero">
<g clip-path="url(#clip4)" clip-rule="nonzero">
<rect x="0" y="0" width="128" height="96" style="fill:rgb(38.039216%,50.588235%,100%);fill-opacity:0.490196;stroke:none;"/>
<path style="fill:none;stroke-width:1;stroke-linecap:butt;stroke-linejoin:miter;stroke:rgb(38.039216%,50.588235%,100%);stroke-opacity:1;stroke-miterlimit:10;" d="M 0.5 5.5 C 0.5 2.738281 2.738281 0.5 5.5 0.5 L 122.5 0.5 C 125.261719 0.5 127.5 2.738281 127.5 5.5 L 127.5 26.5 C 127.5 29.261719 125.261719 31.5 122.5 31.5 L 5.5 31.5 C 2.738281 31.5 0.5 29.261719 0.5 26.5 Z M 0.5 5.5 " transform="matrix(1,0,0,1,0,35)"/>
</g>
</g>
</g>
</svg>
