<?xml version="1.0" encoding="UTF-8"?>
<svg xmlns="http://www.w3.org/2000/svg" xmlns:xlink="http://www.w3.org/1999/xlink" width="128pt" height="96pt" viewBox="0 0 128 96" version="1.1">
<defs>
<clipPath id="clip1">
  <path d="M 45 35 L 87 35 L 87 67 L 45 67 Z M 45 35 "/>
</clipPath>
<clipPath id="clip2">
  <path d="M 45.5 40.5 C 45.5 37.738281 47.738281 35.5 50.5 35.5 L 81.5 35.5 C 84.261719 35.5 86.5 37.738281 86.5 40.5 L 86.5 61.5 C 86.5 64.261719 84.261719 66.5 81.5 66.5 L 50.5 66.5 C 47.738281 66.5 45.5 64.261719 45.5 61.5 Z M 45.5 40.5 "/>
</clipPath>
<clipPath id="clip3">
  <path d="M 43 64 L 85 64 L 85 96 L 43 96 Z M 43 64 "/>
</clipPath>
<clipPath id="clip4">
  <path d="M 43.5 69.5 C 43.5 66.738281 45.738281 64.5 48.5 64.5 L 79.5 64.5 C 82.261719 64.5 84.5 66.738281 84.5 69.5 L 84.5 90.5 C 84.5 93.261719 82.261719 95.5 79.5 95.5 L 48.5 95.5 C 45.738281 95.5 43.5 93.261719 43.5 90.5 Z M 43.5 69.5 "/>
</clipPath>
</defs>
<g id="surface2">
<path style="fill:none;stroke-width:1.5;stroke-linecap:butt;stroke-linejoin:miter;stroke:rgb(0%,0%,0%);stroke-opacity:0.266667;stroke-dasharray:10,4;stroke-dashoffset:1;stroke-miterlimit:10;" d="M 0.75 0.75 L 127.25 0.75 L 127.25 95.25 L 0.75 95.25 Z M 0.75 0.75 "/>
<path style="fill:none;stroke-width:1.5;stroke-linecap:butt;stroke-linejoin:miter;stroke:rgb(0%,0%,0%);stroke-opacity:0.2;stroke-dasharray:10,4;stroke-dashoffset:1;stroke-miterlimit:10;" d="M 10 10 L 118 10 L 118 86 L 10 86 Z M 10 10 "/>
<path style="fill:none;stroke-width:0.75;stroke-linecap:butt;stroke-linejoin:miter;stroke:rgb(0%,0%,0%);stroke-opacity:0.1;stroke-miterlimit:10;" d="M 45 35 L 43 64 "/>
<path style="fill:none;stroke-width:0.75;stroke-linecap:butt;stroke-linejoin:miter;stroke:rgb(0%,0%,0%);stroke-opacity:0.1;stroke-miterlimit:10;" d="M 85 35 L 83 64 M 45 65 L 43 94 "/>
<path style="fill:none;stroke-width:0.75;stroke-linecap:butt;stroke-linejoin:miter;stroke:rgb(0%,0%,0%);stroke-opacity:0.1;stroke-miterlimit:10;" d="M 85 65 L 83 94 "/>
<g clip-path="url(#clip1)" clip-rule="nonzero">
<g clip-path="url(#clip2)" clip-rule="nonzero">
<rect x="0" y="0" width="128" height="96" style="fill:rgb(38.039216%,50.588235%,100%);fill-opacity:0.490196;stroke:none;"/>
<path style="fill:none;stroke-width:1;stroke-linecap:butt;stroke-linejoin:miter;stroke:rgb(38.039216%,50.588235%,100%);stroke-opacity:1;stroke-miterlimit:10;" d="M 0.5 5.5 C 0.5 2.738281 2.738281 0.5 5.5 0.5 L 36.5 0.5 C 39.261719 0.5 41.5 2.738281 41.5 5.5 L 41.5 26.5 C 41.5 29.261719 39.261719 31.5 36.5 31.5 L 5.5 31.5 C 2.738281 31.5 0.5 29.261719 0.5 26.5 Z M 0.5 5.5 " transform="matrix(1,0,0,1,45,35)"/>
</g>
</g>
<g clip-path="url(#clip3)" clip-rule="nonzero">
<g clip-path="url(#clip4)" clip-rule="nonzero">
<rect x="0" y="0" width="128" height="96" style="fill:rgb(38.039216%,50.588235%,100%);fill-opacity:0.490196;stroke:none;"/>
<path style="fill:none;stroke-width:1;stroke-linecap:butt;stroke-linejoin:miter;stroke:rgb(38.039216%,50.588235%,100%);stroke-opacity:1;stroke-miterlimit:10;" d="M 0.5 5.5 C 0.5 2.738281 2.738281 0.5 5.5 0.5 L 36.5 0.5 C 39.261719 0.5 41.5 2.738281 41.5 5.5 L 41.5 26.5 C 41.5 29.261719 39.261719 31.5 36.5 31.5 L 5.5 31.5 C 2.738281 31.5 0.5 29.261719 0.5 26.5 Z M 0.5 5.5 " transform="matrix(1,0,0,1,43,64)"/>
</g>
</g>
</g>
</svg>
