<?xml version="1.0" encoding="UTF-8"?>
<svg xmlns="http://www.w3.org/2000/svg" xmlns:xlink="http://www.w3.org/1999/xlink" width="110pt" height="30pt" viewBox="0 0 110 30" version="1.1">
<defs>
<clipPath id="clip1">
  <path d="M 0 0 L 110 0 L 110 20 L 0 20 Z M 0 0 "/>
</clipPath>
<clipPath id="clip2">
  <path d="M 3 0 L 110 0 L 110 20 L 3 20 Z M 3 0 "/>
</clipPath>
</defs>
<g id="surface2">
<g clip-path="url(#clip1)" clip-rule="nonzero">
<rect x="0" y="0" width="110" height="30" style="fill:rgb(38.039216%,50.588235%,100%);fill-opacity:0.490196;stroke:none;"/>
</g>
<g clip-path="url(#clip2)" clip-rule="nonzero">
<path style=" stroke:none;fill-rule:nonzero;fill:rgb(66.666667%,0%,100%);fill-opacity:0.490196;" d="M 3 18.050781 C 3 17.222656 3.671875 16.550781 4.5 16.550781 C 5.328125 16.550781 6 17.222656 6 18.050781 L 6 35.050781 C 6 35.878906 5.328125 36.550781 4.5 36.550781 C 3.671875 36.550781 3 35.878906 3 35.050781 Z M 6 21.5 C 6 20.671875 6.671875 20 7.5 20 C 8.328125 20 9 20.671875 9 21.5 L 9 38.5 C 9 39.328125 8.328125 40 7.5 40 C 6.671875 40 6 39.328125 6 38.5 Z M 10 21.5 C 10 20.671875 10.671875 20 11.5 20 C 12.328125 20 13 20.671875 13 21.5 L 13 38.5 C 13 39.328125 12.328125 40 11.5 40 C 10.671875 40 10 39.328125 10 38.5 Z M 14 20.808594 C 14 19.980469 14.671875 19.308594 15.5 19.308594 C 16.328125 19.308594 17 19.980469 17 20.808594 L 17 37.808594 C 17 38.640625 16.328125 39.308594 15.5 39.308594 C 14.671875 39.308594 14 38.640625 14 37.808594 Z M 18 16.671875 C 18 15.84375 18.671875 15.171875 19.5 15.171875 C 20.328125 15.171875 21 15.84375 21 16.671875 L 21 33.671875 C 21 34.5 20.328125 35.171875 19.5 35.171875 C 18.671875 35.171875 18 34.5 18 33.671875 Z M 22 9.777344 C 22 8.949219 22.671875 8.277344 23.5 8.277344 C 24.328125 8.277344 25 8.949219 25 9.777344 L 25 26.777344 C 25 27.605469 24.328125 28.277344 23.5 28.277344 C 22.671875 28.277344 22 27.605469 22 26.777344 Z M 26 6.328125 C 26 5.5 26.671875 4.828125 27.5 4.828125 C 28.328125 4.828125 29 5.5 29 6.328125 L 29 23.328125 C 29 24.15625 28.328125 24.828125 27.5 24.828125 C 26.671875 24.828125 26 24.15625 26 23.328125 Z M 30 21.5 C 30 20.671875 30.671875 20 31.5 20 C 32.328125 20 33 20.671875 33 21.5 L 33 38.5 C 33 39.328125 32.328125 40 31.5 40 C 30.671875 40 30 39.328125 30 38.5 Z M 34 21.5 C 34 20.671875 34.671875 20 35.5 20 C 36.328125 20 37 20.671875 37 21.5 L 37 38.5 C 37 39.328125 36.328125 40 35.5 40 C 34.671875 40 34 39.328125 34 38.5 Z M 38 20.808594 C 38 19.980469 38.671875 19.308594 39.5 19.308594 C 40.328125 19.308594 41 19.980469 41 20.808594 L 41 37.808594 C 41 38.640625 40.328125 39.308594 39.5 39.308594 C 38.671875 39.308594 38 38.640625 38 37.808594 Z M 42 19.429688 C 42 18.601562 42.671875 17.929688 43.5 17.929688 C 44.328125 17.929688 45 18.601562 45 19.429688 L 45 36.429688 C 45 37.257812 44.328125 37.929688 43.5 37.929688 C 42.671875 37.929688 42 37.257812 42 36.429688 Z M 46 21.5 C 46 20.671875 46.671875 20 47.5 20 C 48.328125 20 49 20.671875 49 21.5 L 49 38.5 C 49 39.328125 48.328125 40 47.5 40 C 46.671875 40 46 39.328125 46 38.5 Z M 50 21.5 C 50 20.671875 50.671875 20 51.5 20 C 52.328125 20 53 20.671875 53 21.5 L 53 38.5 C 53 39.328125 52.328125 40 51.5 40 C 50.671875 40 50 39.328125 50 38.5 Z M 54 11.84375 C 54 11.015625 54.671875 10.34375 55.5 10.34375 C 56.328125 10.34375 57 11.015625 57 11.84375 L 57 28.84375 C 57 29.671875 56.328125 30.34375 55.5 30.34375 C 54.671875 30.34375 54 29.671875 54 28.84375 Z M 58 9.777344 C 58 8.949219 58.671875 8.277344 59.5 8.277344 C 60.328125 8.277344 61 8.949219 61 9.777344 L 61 26.777344 C 61 27.605469 60.328125 28.277344 59.5 28.277344 C 58.671875 28.277344 58 27.605469 58 26.777344 Z M 62 9.777344 C 62 8.949219 62.671875 8.277344 63.5 8.277344 C 64.328125 8.277344 65 8.949219 65 9.777344 L 65 26.777344 C 65 27.605469 64.328125 28.277344 63.5 28.277344 C 62.671875 28.277344 62 27.605469 62 26.777344 Z M 66 1.5 C 66 0.671875 66.671875 0 67.5 0 C 68.328125 0 69 0.671875 69 1.5 L 69 18.5 C 69 19.328125 68.328125 20 67.5 20 C 66.671875 20 66 19.328125 66 18.5 Z M 70 8.398438 C 70 7.566406 70.671875 6.898438 71.5 6.898438 C 72.328125 6.898438 73 7.566406 73 8.398438 L 73 25.398438 C 73 26.226562 72.328125 26.898438 71.5 26.898438 C 70.671875 26.898438 70 26.226562 70 25.398438 Z M 74 11.15625 C 74 10.328125 74.671875 9.65625 75.5 9.65625 C 76.328125 9.65625 77 10.328125 77 11.15625 L 77 28.15625 C 77 28.984375 76.328125 29.65625 75.5 29.65625 C 74.671875 29.65625 74 28.984375 74 28.15625 Z M 78 13.914062 C 78 13.085938 78.671875 12.414062 79.5 12.414062 C 80.328125 12.414062 81 13.085938 81 13.914062 L 81 30.914062 C 81 31.742188 80.328125 32.414062 79.5 32.414062 C 78.671875 32.414062 78 31.742188 78 30.914062 Z M 82 18.742188 C 82 17.914062 82.671875 17.242188 83.5 17.242188 C 84.328125 17.242188 85 17.914062 85 18.742188 L 85 35.742188 C 85 36.570312 84.328125 37.242188 83.5 37.242188 C 82.671875 37.242188 82 36.570312 82 35.742188 Z M 86 17.363281 C 86 16.535156 86.671875 15.863281 87.5 15.863281 C 88.328125 15.863281 89 16.535156 89 17.363281 L 89 34.363281 C 89 35.191406 88.328125 35.863281 87.5 35.863281 C 86.671875 35.863281 86 35.191406 86 34.363281 Z M 90 18.050781 C 90 17.222656 90.671875 16.550781 91.5 16.550781 C 92.328125 16.550781 93 17.222656 93 18.050781 L 93 35.050781 C 93 35.878906 92.328125 36.550781 91.5 36.550781 C 90.671875 36.550781 90 35.878906 90 35.050781 Z M 94 19.429688 C 94 18.601562 94.671875 17.929688 95.5 17.929688 C 96.328125 17.929688 97 18.601562 97 19.429688 L 97 36.429688 C 97 37.257812 96.328125 37.929688 95.5 37.929688 C 94.671875 37.929688 94 37.257812 94 36.429688 Z M 98 18.050781 C 98 17.222656 98.671875 16.550781 99.5 16.550781 C 100.328125 16.550781 101 17.222656 101 18.050781 L 101 35.050781 C 101 35.878906 100.328125 36.550781 99.5 36.550781 C 98.671875 36.550781 98 35.878906 98 35.050781 Z M 102 21.5 C 102 20.671875 102.671875 20 103.5 20 C 104.328125 20 105 20.671875 105 21.5 L 105 38.5 C 105 39.328125 104.328125 40 103.5 40 C 102.671875 40 102 39.328125 102 38.5 Z M 106 21.5 C 106 20.671875 106.671875 20 107.5 20 C 108.328125 20 109 20.671875 109 21.5 L 109 38.5 C 109 39.328125 108.328125 40 107.5 40 C 106.671875 40 106 39.328125 106 38.5 Z M 110 20.808594 C 110 19.980469 110.671875 19.308594 111.5 19.308594 C 112.328125 19.308594 113 19.980469 113 20.808594 L 113 37.808594 C 113 38.640625 112.328125 39.308594 111.5 39.308594 C 110.671875 39.308594 110 38.640625 110 37.808594 Z M 114 16.671875 C 114 15.84375 114.671875 15.171875 115.5 15.171875 C 116.328125 15.171875 117 15.84375 117 16.671875 L 117 33.671875 C 117 34.5 116.328125 35.171875 115.5 35.171875 C 114.671875 35.171875 114 34.5 114 33.671875 Z M 118 9.777344 C 118 8.949219 118.671875 8.277344 119.5 8.277344 C 120.328125 8.277344 121 8.949219 121 9.777344 L 121 26.777344 C 121 27.605469 120.328125 28.277344 119.5 28.277344 C 118.671875 28.277344 118 27.605469 118 26.777344 Z M 122 6.328125 C 122 5.5 122.671875 4.828125 123.5 4.828125 C 124.328125 4.828125 125 5.5 125 6.328125 L 125 23.328125 C 125 24.15625 124.328125 24.828125 123.5 24.828125 C 122.671875 24.828125 122 24.15625 122 23.328125 Z M 126 21.5 C 126 20.671875 126.671875 20 127.5 20 C 128.328125 20 129 20.671875 129 21.5 L 129 38.5 C 129 39.328125 128.328125 40 127.5 40 C 126.671875 40 126 39.328125 126 38.5 Z M 130 21.5 C 130 20.671875 130.671875 20 131.5 20 C 132.328125 20 133 20.671875 133 21.5 L 133 38.5 C 133 39.328125 132.328125 40 131.5 40 C 130.671875 40 130 39.328125 130 38.5 Z M 134 20.808594 C 134 19.980469 134.671875 19.308594 135.5 19.308594 C 136.328125 19.308594 137 19.980469 137 20.808594 L 137 37.808594 C 137 38.640625 136.328125 39.308594 135.5 39.308594 C 134.671875 39.308594 134 38.640625 134 37.808594 Z M 138 19.429688 C 138 18.601562 138.671875 17.929688 139.5 17.929688 C 140.328125 17.929688 141 18.601562 141 19.429688 L 141 36.429688 C 141 37.257812 140.328125 37.929688 139.5 37.929688 C 138.671875 37.929688 138 37.257812 138 36.429688 Z M 142 21.5 C 142 20.671875 142.671875 20 143.5 20 C 144.328125 20 145 20.671875 145 21.5 L 145 38.5 C 145 39.328125 144.328125 40 143.5 40 C 142.671875 40 142 39.328125 142 38.5 Z M 146 21.5 C 146 20.671875 146.671875 20 147.5 20 C 148.328125 20 149 20.671875 149 21.5 L 149 38.5 C 149 39.328125 148.328125 40 147.5 40 C 146.671875 40 146 39.328125 146 38.5 Z M 150 11.84375 C 150 11.015625 150.671875 10.34375 151.5 10.34375 C 152.328125 10.34375 153 11.015625 153 11.84375 L 153 28.84375 C 153 29.671875 152.328125 30.34375 151.5 30.34375 C 150.671875 30.34375 150 29.671875 150 28.84375 Z M 154 9.777344 C 154 8.949219 154.671875 8.277344 155.5 8.277344 C 156.328125 8.277344 157 8.949219 157 9.777344 L 157 26.777344 C 157 27.605469 156.328125 28.277344 155.5 28.277344 C 154.671875 28.277344 154 27.605469 154 26.777344 Z M 158 9.777344 C 158 8.949219 158.671875 8.277344 159.5 8.277344 C 160.328125 8.277344 161 8.949219 161 9.777344 L 161 26.777344 C 161 27.605469 160.328125 28.277344 159.5 28.277344 C 158.671875 28.277344 158 27.605469 158 26.777344 Z M 162 1.5 C 162 0.671875 162.671875 0 163.5 0 C 164.328125 0 165 0.671875 165 1.5 L 165 18.5 C 165 19.328125 164.328125 20 163.5 20 C 162.671875 20 162 19.328125 162 18.5 Z M 166 8.398438 C 166 7.566406 166.671875 6.898438 167.5 6.898438 C 168.328125 6.898438 169 7.566406 169 8.398438 L 169 25.398438 C 169 26.226562 168.328125 26.898438 167.5 26.898438 C 166.671875 26.898438 166 26.226562 166 25.398438 Z M 170 11.15625 C 170 10.328125 170.671875 9.65625 171.5 9.65625 C 172.328125 9.65625 173 10.328125 173 11.15625 L 173 28.15625 C 173 28.984375 172.328125 29.65625 171.5 29.65625 C 170.671875 29.65625 170 28.984375 170 28.15625 Z M 174 13.914062 C 174 13.085938 174.671875 12.414062 175.5 12.414062 C 176.328125 12.414062 177 13.085938 177 13.914062 L 177 30.914062 C 177 31.742188 176.328125 32.414062 175.5 32.414062 C 174.671875 32.414062 174 31.742188 174 30.914062 Z M 178 18.742188 C 178 17.914062 178.671875 17.242188 179.5 17.242188 C 180.328125 17.242188 181 17.914062 181 18.742188 L 181 35.742188 C 181 36.570312 180.328125 37.242188 179.5 37.242188 C 178.671875 37.242188 178 36.570312 178 35.742188 Z M 182 17.363281 C 182 16.535156 182.671875 15.863281 183.5 15.863281 C 184.328125 15.863281 185 16.535156 185 17.363281 L 185 34.363281 C 185 35.191406 184.328125 35.863281 183.5 35.863281 C 182.671875 35.863281 182 35.191406 182 34.363281 Z M 186 18.050781 C 186 17.222656 186.671875 16.550781 187.5 16.550781 C 188.328125 16.550781 189 17.222656 189 18.050781 L 189 35.050781 C 189 35.878906 188.328125 36.550781 187.5 36.550781 C 186.671875 36.550781 186 35.878906 186 35.050781 Z M 190 19.429688 C 190 18.601562 190.671875 17.929688 191.5 17.929688 C 192.328125 17.929688 193 18.601562 193 19.429688 L 193 36.429688 C 193 37.257812 192.328125 37.929688 191.5 37.929688 C 190.671875 37.929688 190 37.257812 190 36.429688 Z M 194 18.050781 C 194 17.222656 194.671875 16.550781 195.5 16.550781 C 196.328125 16.550781 197 17.222656 197 18.050781 L 197 35.050781 C 197 35.878906 196.328125 36.550781 195.5 36.550781 C 194.671875 36.550781 194 35.878906 194 35.050781 Z M 198 21.5 C 198 20.671875 198.671875 20 199.5 20 C 200.328125 20 201 20.671875 201 21.5 L 201 38.5 C 201 39.328125 200.328125 40 199.5 40 C 198.671875 40 198 39.328125 198 38.5 Z M 202 21.5 C 202 20.671875 202.671875 20 203.5 20 C 204.328125 20 205 20.671875 205 21.5 L 205 38.5 C 205 39.328125 204.328125 40 203.5 40 C 202.671875 40 202 39.328125 202 38.5 Z M 206 20.808594 C 206 19.980469 206.671875 19.308594 207.5 19.308594 C 208.328125 19.308594 209 19.980469 209 20.808594 L 209 37.808594 C 209 38.640625 208.328125 39.308594 207.5 39.308594 C 206.671875 39.308594 206 38.640625 206 37.808594 Z M 210 16.671875 C 210 15.84375 210.671875 15.171875 211.5 15.171875 C 212.328125 15.171875 213 15.84375 213 16.671875 L 213 33.671875 C 213 34.5 212.328125 35.171875 211.5 35.171875 C 210.671875 35.171875 210 34.5 210 33.671875 Z M 214 9.777344 C 214 8.949219 214.671875 8.277344 215.5 8.277344 C 216.328125 8.277344 217 8.949219 217 9.777344 L 217 26.777344 C 217 27.605469 216.328125 28.277344 215.5 28.277344 C 214.671875 28.277344 214 27.605469 214 26.777344 Z M 218 6.328125 C 218 5.5 218.671875 4.828125 219.5 4.828125 C 220.328125 4.828125 221 5.5 221 6.328125 L 221 23.328125 C 221 24.15625 220.328125 24.828125 219.5 24.828125 C 218.671875 24.828125 218 24.15625 218 23.328125 Z M 222 21.5 C 222 20.671875 222.671875 20 223.5 20 C 224.328125 20 225 20.671875 225 21.5 L 225 38.5 C 225 39.328125 224.328125 40 223.5 40 C 222.671875 40 222 39.328125 222 38.5 Z M 226 21.5 C 226 20.671875 226.671875 20 227.5 20 C 228.328125 20 229 20.671875 229 21.5 L 229 38.5 C 229 39.328125 228.328125 40 227.5 40 C 226.671875 40 226 39.328125 226 38.5 Z M 230 20.808594 C 230 19.980469 230.671875 19.308594 231.5 19.308594 C 232.328125 19.308594 233 19.980469 233 20.808594 L 233 37.808594 C 233 38.640625 232.328125 39.308594 231.5 39.308594 C 230.671875 39.308594 230 38.640625 230 37.808594 Z M 234 19.429688 C 234 18.601562 234.671875 17.929688 235.5 17.929688 C 236.328125 17.929688 237 18.601562 237 19.429688 L 237 36.429688 C 237 37.257812 236.328125 37.929688 235.5 37.929688 C 234.671875 37.929688 234 37.257812 234 36.429688 Z M 238 21.5 C 238 20.671875 238.671875 20 239.5 20 C 240.328125 20 241 20.671875 241 21.5 L 241 38.5 C 241 39.328125 240.328125 40 239.5 40 C 238.671875 40 238 39.328125 238 38.5 Z M 242 21.5 C 242 20.671875 242.671875 20 243.5 20 C 244.328125 20 245 20.671875 245 21.5 L 245 38.5 C 245 39.328125 244.328125 40 243.5 40 C 242.671875 40 242 39.328125 242 38.5 Z M 246 11.84375 C 246 11.015625 246.671875 10.34375 247.5 10.34375 C 248.328125 10.34375 249 11.015625 249 11.84375 L 249 28.84375 C 249 29.671875 248.328125 30.34375 247.5 30.34375 C 246.671875 30.34375 246 29.671875 246 28.84375 Z M 250 9.777344 C 250 8.949219 250.671875 8.277344 251.5 8.277344 C 252.328125 8.277344 253 8.949219 253 9.777344 L 253 26.777344 C 253 27.605469 252.328125 28.277344 251.5 28.277344 C 250.671875 28.277344 250 27.605469 250 26.777344 Z M 254 9.777344 C 254 8.949219 254.671875 8.277344 255.5 8.277344 C 256.328125 8.277344 257 8.949219 257 9.777344 L 257 26.777344 C 257 27.605469 256.328125 28.277344 255.5 28.277344 C 254.671875 28.277344 254 27.605469 254 26.777344 Z M 258 1.5 C 258 0.671875 258.671875 0 259.5 0 C 260.328125 0 261 0.671875 261 1.5 L 261 18.5 C 261 19.328125 260.328125 20 259.5 20 C 258.671875 20 258 19.328125 258 18.5 Z M 262 8.398438 C 262 7.566406 262.671875 6.898438 263.5 6.898438 C 264.328125 6.898438 265 7.566406 265 8.398438 L 265 25.398438 C 265 26.226562 264.328125 26.898438 263.5 26.898438 C 262.671875 26.898438 262 26.226562 262 25.398438 Z M 266 11.15625 C 266 10.328125 266.671875 9.65625 267.5 9.65625 C 268.328125 9.65625 269 10.328125 269 11.15625 L 269 28.15625 C 269 28.984375 268.328125 29.65625 267.5 29.65625 C 266.671875 29.65625 266 28.984375 266 28.15625 Z M 270 13.914062 C 270 13.085938 270.671875 12.414062 271.5 12.414062 C 272.328125 12.414062 273 13.085938 273 13.914062 L 273 30.914062 C 273 31.742188 272.328125 32.414062 271.5 32.414062 C 270.671875 32.414062 270 31.742188 270 30.914062 Z M 274 18.742188 C 274 17.914062 274.671875 17.242188 275.5 17.242188 C 276.328125 17.242188 277 17.914062 277 18.742188 L 277 35.742188 C 277 36.570312 276.328125 37.242188 275.5 37.242188 C 274.671875 37.242188 274 36.570312 274 35.742188 Z M 278 17.363281 C 278 16.535156 278.671875 15.863281 279.5 15.863281 C 280.328125 15.863281 281 16.535156 281 17.363281 L 281 34.363281 C 281 35.191406 280.328125 35.863281 279.5 35.863281 C 278.671875 35.863281 278 35.191406 278 34.363281 Z M 282 18.050781 C 282 17.222656 282.671875 16.550781 283.5 16.550781 C 284.328125 16.550781 285 17.222656 285 18.050781 L 285 35.050781 C 285 35.878906 284.328125 36.550781 283.5 36.550781 C 282.671875 36.550781 282 35.878906 282 35.050781 Z M 286 19.429688 C 286 18.601562 286.671875 17.929688 287.5 17.929688 C 288.328125 17.929688 289 18.601562 289 19.429688 L 289 36.429688 C 289 37.257812 288.328125 37.929688 287.5 37.929688 C 286.671875 37.929688 286 37.257812 286 36.429688 Z M 290 18.050781 C 290 17.222656 290.671875 16.550781 291.5 16.550781 C 292.328125 16.550781 293 17.222656 293 18.050781 L 293 35.050781 C 293 35.878906 292.328125 36.550781 291.5 36.550781 C 290.671875 36.550781 290 35.878906 290 35.050781 Z M 294 21.5 C 294 20.671875 294.671875 20 295.5 20 C 296.328125 20 297 20.671875 297 21.5 L 297 38.5 C 297 39.328125 296.328125 40 295.5 40 C 294.671875 40 294 39.328125 294 38.5 Z M 298 21.5 C 298 20.671875 298.671875 20 299.5 20 C 300.328125 20 301 20.671875 301 21.5 L 301 38.5 C 301 39.328125 300.328125 40 299.5 40 C 298.671875 40 298 39.328125 298 38.5 Z M 302 20.808594 C 302 19.980469 302.671875 19.308594 303.5 19.308594 C 304.328125 19.308594 305 19.980469 305 20.808594 L 305 37.808594 C 305 38.640625 304.328125 39.308594 303.5 39.308594 C 302.671875 39.308594 302 38.640625 302 37.808594 Z M 306 16.671875 C 306 15.84375 306.671875 15.171875 307.5 15.171875 C 308.328125 15.171875 309 15.84375 309 16.671875 L 309 33.671875 C 309 34.5 308.328125 35.171875 307.5 35.171875 C 306.671875 35.171875 306 34.5 306 33.671875 Z M 310 9.777344 C 310 8.949219 310.671875 8.277344 311.5 8.277344 C 312.328125 8.277344 313 8.949219 313 9.777344 L 313 26.777344 C 313 27.605469 312.328125 28.277344 311.5 28.277344 C 310.671875 28.277344 310 27.605469 310 26.777344 Z M 314 6.328125 C 314 5.5 314.671875 4.828125 315.5 4.828125 C 316.328125 4.828125 317 5.5 317 6.328125 L 317 23.328125 C 317 24.15625 316.328125 24.828125 315.5 24.828125 C 314.671875 24.828125 314 24.15625 314 23.328125 Z M 318 21.5 C 318 20.671875 318.671875 20 319.5 20 C 320.328125 20 321 20.671875 321 21.5 L 321 38.5 C 321 39.328125 320.328125 40 319.5 40 C 318.671875 40 318 39.328125 318 38.5 Z M 322 21.5 C 322 20.671875 322.671875 20 323.5 20 C 324.328125 20 325 20.671875 325 21.5 L 325 38.5 C 325 39.328125 324.328125 40 323.5 40 C 322.671875 40 322 39.328125 322 38.5 Z M 326 20.808594 C 326 19.980469 326.671875 19.308594 327.5 19.308594 C 328.328125 19.308594 329 19.980469 329 20.808594 L 329 37.808594 C 329 38.640625 328.328125 39.308594 327.5 39.308594 C 326.671875 39.308594 326 38.640625 326 37.808594 Z M 330 19.429688 C 330 18.601562 330.671875 17.929688 331.5 17.929688 C 332.328125 17.929688 333 18.601562 333 19.429688 L 333 36.429688 C 333 37.257812 332.328125 37.929688 331.5 37.929688 C 330.671875 37.929688 330 37.257812 330 36.429688 Z M 334 21.5 C 334 20.671875 334.671875 20 335.5 20 C 336.328125 20 337 20.671875 337 21.5 L 337 38.5 C 337 39.328125 336.328125 40 335.5 40 C 334.671875 40 334 39.328125 334 38.5 Z M 338 21.5 C 338 20.671875 338.671875 20 339.5 20 C 340.328125 20 341 20.671875 341 21.5 L 341 38.5 C 341 39.328125 340.328125 40 339.5 40 C 338.671875 40 338 39.328125 338 38.5 Z M 342 11.84375 C 342 11.015625 342.671875 10.34375 343.5 10.34375 C 344.328125 10.34375 345 11.015625 345 11.84375 L 345 28.84375 C 345 29.671875 344.328125 30.34375 343.5 30.34375 C 342.671875 30.34375 342 29.671875 342 28.84375 Z M 346 9.777344 C 346 8.949219 346.671875 8.277344 347.5 8.277344 C 348.328125 8.277344 349 8.949219 349 9.777344 L 349 26.777344 C 349 27.605469 348.328125 28.277344 347.5 28.277344 C 346.671875 28.277344 346 27.605469 346 26.777344 Z M 350 9.777344 C 350 8.949219 350.671875 8.277344 351.5 8.277344 C 352.328125 8.277344 353 8.949219 353 9.777344 L 353 26.777344 C 353 27.605469 352.328125 28.277344 351.5 28.277344 C 350.671875 28.277344 350 27.605469 350 26.777344 Z M 354 1.5 C 354 0.671875 354.671875 0 355.5 0 C 356.328125 0 357 0.671875 357 1.5 L 357 18.5 C 357 19.328125 356.328125 20 355.5 20 C 354.671875 20 354 19.328125 354 18.5 Z M 358 8.398438 C 358 7.566406 358.671875 6.898438 359.5 6.898438 C 360.328125 6.898438 361 7.566406 361 8.398438 L 361 25.398438 C 361 26.226562 360.328125 26.898438 359.5 26.898438 C 358.671875 26.898438 358 26.226562 358 25.398438 Z M 362 11.15625 C 362 10.328125 362.671875 9.65625 363.5 9.65625 C 364.328125 9.65625 365 10.328125 365 11.15625 L 365 28.15625 C 365 28.984375 364.328125 29.65625 363.5 29.65625 C 362.671875 29.65625 362 28.984375 362 28.15625 Z M 366 13.914062 C 366 13.085938 366.671875 12.414062 367.5 12.414062 C 368.328125 12.414062 369 13.085938 369 13.914062 L 369 30.914062 C 369 31.742188 368.328125 32.414062 367.5 32.414062 C 366.671875 32.414062 366 31.742188 366 30.914062 Z M 370 18.742188 C 370 17.914062 370.671875 17.242188 371.5 17.242188 C 372.328125 17.242188 373 17.914062 373 18.742188 L 373 35.742188 C 373 36.570312 372.328125 37.242188 371.5 37.242188 C 370.671875 37.242188 370 36.570312 370 35.742188 Z M 374 17.363281 C 374 16.535156 374.671875 15.863281 375.5 15.863281 C 376.328125 15.863281 377 16.535156 377 17.363281 L 377 34.363281 C 377 35.191406 376.328125 35.863281 375.5 35.863281 C 374.671875 35.863281 374 35.191406 374 34.363281 Z M 378 18.050781 C 378 17.222656 378.671875 16.550781 379.5 16.550781 C 380.328125 16.550781 381 17.222656 381 18.050781 L 381 35.050781 C 381 35.878906 380.328125 36.550781 379.5 36.550781 C 378.671875 36.550781 378 35.878906 378 35.050781 Z M 382 19.429688 C 382 18.601562 382.671875 17.929688 383.5 17.929688 C 384.328125 17.929688 385 18.601562 385 19.429688 L 385 36.429688 C 385 37.257812 384.328125 37.929688 383.5 37.929688 C 382.671875 37.929688 382 37.257812 382 36.429688 Z M 386 18.050781 C 386 17.222656 386.671875 16.550781 387.5 16.550781 C 388.328125 16.550781 389 17.222656 389 18.050781 L 389 35.050781 C 389 35.878906 388.328125 36.550781 387.5 36.550781 C 386.671875 36.550781 386 35.878906 386 35.050781 Z M 390 21.5 C 390 20.671875 390.671875 20 391.5 20 C 392.328125 20 393 20.671875 393 21.5 L 393 38.5 C 393 39.328125 392.328125 40 391.5 40 C 390.671875 40 390 39.328125 390 38.5 Z M 394 21.5 C 394 20.671875 394.671875 20 395.5 20 C 396.328125 20 397 20.671875 397 21.5 L 397 38.5 C 397 39.328125 396.328125 40 395.5 40 C 394.671875 40 394 39.328125 394 38.5 Z M 398 20.808594 C 398 19.980469 398.671875 19.308594 399.5 19.308594 C 400.328125 19.308594 401 19.980469 401 20.808594 L 401 37.808594 C 401 38.640625 400.328125 39.308594 399.5 39.308594 C 398.671875 39.308594 398 38.640625 398 37.808594 Z M 398 20.808594 "/>
</g>
</g>
</svg>
