<?xml version="1.0" encoding="UTF-8"?>
<svg xmlns="http://www.w3.org/2000/svg" xmlns:xlink="http://www.w3.org/1999/xlink" width="320pt" height="240pt" viewBox="0 0 320 240" version="1.1">
<defs>
<clipPath id="clip1">
  <path d="M 20 20 L 302 20 L 302 222 L 20 222 Z M 20 20 "/>
</clipPath>
<clipPath id="clip2">
  <path d="M 20.5 25.5 C 20.5 22.738281 22.738281 20.5 25.5 20.5 L 296.5 20.5 C 299.261719 20.5 301.5 22.738281 301.5 25.5 L 301.5 216.5 C 301.5 219.261719 299.261719 221.5 296.5 221.5 L 25.5 221.5 C 22.738281 221.5 20.5 219.261719 20.5 216.5 Z M 20.5 25.5 "/>
</clipPath>
</defs>
<g id="surface2">
<path style="fill:none;stroke-width:1.5;stroke-linecap:butt;stroke-linejoin:miter;stroke:rgb(0%,0%,0%);stroke-opacity:0.266667;stroke-dasharray:10,4;stroke-dashoffset:1;stroke-miterlimit:10;" d="M 0.75 0.75 L 319.25 0.75 L 319.25 239.25 L 0.75 239.25 Z M 0.75 0.75 "/>
<path style="fill:none;stroke-width:1.5;stroke-linecap:butt;stroke-linejoin:miter;stroke:rgb(0%,0%,0%);stroke-opacity:0.2;stroke-dasharray:10,4;stroke-dashoffset:1;stroke-miterlimit:10;" d="M 10 10 L 310 10 L 310 230 L 10 230 Z M 10 10 "/>
<g clip-path="url(#clip1)" clip-rule="nonzero">
<g clip-path="url(#clip2)" clip-rule="nonzero">
<rect x="0" y="0" width="320" height="240" style="fill:rgb(38.039216%,50.588235%,100%);fill-opacity:0.490196;stroke:none;"/>
<path style="fill:none;stroke-width:1;stroke-linecap:butt;stroke-linejoin:miter;stroke:rgb(38.039216%,50.588235%,100%);stroke-opacity:1;stroke-miterlimit:10;" d="M 0.5 5.5 C 0.5 2.738281 2.738281 0.5 5.5 0.5 L 276.5 0.5 C 279.261719 0.5 281.5 2.738281 281.5 5.5 L 281.5 196.5 C 281.5 199.261719 279.261719 201.5 276.5 201.5 L 5.5 201.5 C 2.738281 201.5 0.5 199.261719 0.5 196.5 Z M 0.5 5.5 " transform="matrix(1,0,0,1,20,20)"/>
</g>
</g>
<path style=" stroke:none;fill-rule:nonzero;fill:rgb(100%,0%,0%);fill-opacity:1;" d="M 100 100 L 100 110 L 103 108 L 106 112 L 108 112 L 105 108 L 109 108 Z M 100 100 "/>
<path style=" stroke:none;fill-rule:nonzero;fill:rgb(100%,0%,0%);fill-opacity:1;" d="M 20 121 L 20 131 L 23 129 L 26 133 L 28 133 L 25 129 L 29 129 Z M 20 121 "/>
<path style="fill:none;stroke-width:0.75;stroke-linecap:butt;stroke-linejoin:miter;stroke:rgb(100%,0%,0%);stroke-opacity:1;stroke-dasharray:1,1;stroke-dashoffset:1;stroke-miterlimit:10;" d="M 100 100 L 20 121 "/>
<path style=" stroke:none;fill-rule:nonzero;fill:rgb(100%,0%,0%);fill-opacity:1;" d="M 60 40 L 60 50 L 63 48 L 66 52 L 68 52 L 65 48 L 69 48 Z M 60 40 "/>
<path style=" stroke:none;fill-rule:nonzero;fill:rgb(100%,0%,0%);fill-opacity:1;" d="M 20 20 L 20 30 L 23 28 L 26 32 L 28 32 L 25 28 L 29 28 Z M 20 20 "/>
<path style="fill:none;stroke-width:0.75;stroke-linecap:butt;stroke-linejoin:miter;stroke:rgb(100%,0%,0%);stroke-opacity:1;stroke-dasharray:1,1;stroke-dashoffset:1;stroke-miterlimit:10;" d="M 60 40 L 20 20 "/>
<path style=" stroke:none;fill-rule:nonzero;fill:rgb(100%,0%,0%);fill-opacity:1;" d="M 230 50 L 230 60 L 233 58 L 236 62 L 238 62 L 235 58 L 239 58 Z M 230 50 "/>
<path style=" stroke:none;fill-rule:nonzero;fill:rgb(100%,0%,0%);fill-opacity:1;" d="M 302 20 L 302 30 L 305 28 L 308 32 L 310 32 L 307 28 L 311 28 Z M 302 20 "/>
<path style="fill:none;stroke-width:0.75;stroke-linecap:butt;stroke-linejoin:miter;stroke:rgb(100%,0%,0%);stroke-opacity:1;stroke-dasharray:1,1;stroke-dashoffset:1;stroke-miterlimit:10;" d="M 230 50 L 302 20 "/>
<path style=" stroke:none;fill-rule:nonzero;fill:rgb(100%,0%,0%);fill-opacity:1;" d="M 240 140 L 240 150 L 243 148 L 246 152 L 248 152 L 245 148 L 249 148 Z M 240 140 "/>
<path style=" stroke:none;fill-rule:nonzero;fill:rgb(100%,0%,0%);fill-opacity:1;" d="M 302 121 L 302 131 L 305 129 L 308 133 L 310 133 L 307 129 L 311 129 Z M 302 121 "/>
<path style="fill:none;stroke-width:0.75;stroke-linecap:butt;stroke-linejoin:miter;stroke:rgb(100%,0%,0%);stroke-opacity:1;stroke-dasharray:1,1;stroke-dashoffset:1;stroke-miterlimit:10;" d="M 240 140 L 302 121 "/>
<path style=" stroke:none;fill-rule:nonzero;fill:rgb(100%,0%,0%);fill-opacity:1;" d="M 210 190 L 210 200 L 213 198 L 216 202 L 218 202 L 215 198 L 219 198 Z M 210 190 "/>
<path style=" stroke:none;fill-rule:nonzero;fill:rgb(100%,0%,0%);fill-opacity:1;" d="M 302 222 L 302 232 L 305 230 L 308 234 L 310 234 L 307 230 L 311 230 Z M 302 222 "/>
<path style="fill:none;stroke-width:0.75;stroke-linecap:butt;stroke-linejoin:miter;stroke:rgb(100%,0%,0%);stroke-opacity:1;stroke-dasharray:1,1;stroke-dashoffset:1;stroke-miterlimit:10;" d="M 210 190 L 302 222 "/>
<path style=" stroke:none;fill-rule:nonzero;fill:rgb(100%,0%,0%);fill-opacity:1;" d="M 130 190 L 130 200 L 133 198 L 136 202 L 138 202 L 135 198 L 139 198 Z M 130 190 "/>
<path style=" stroke:none;fill-rule:nonzero;fill:rgb(100%,0%,0%);fill-opacity:1;" d="M 161 222 L 161 232 L 164 230 L 167 234 L 169 234 L 166 230 L 170 230 Z M 161 222 "/>
<path style="fill:none;stroke-width:0.75;stroke-linecap:butt;stroke-linejoin:miter;stroke:rgb(100%,0%,0%);stroke-opacity:1;stroke-dasharray:1,1;stroke-dashoffset:1;stroke-miterlimit:10;" d="M 130 190 L 161 222 "/>
<path style=" stroke:none;fill-rule:nonzero;fill:rgb(100%,0%,0%);fill-opacity:1;" d="M 130 30 L 130 40 L 133 38 L 136 42 L 138 42 L 135 38 L 139 38 Z M 130 30 "/>
<path style=" stroke:none;fill-rule:nonzero;fill:rgb(100%,0%,0%);fill-opacity:1;" d="M 161 20 L 161 30 L 164 28 L 167 32 L 169 32 L 166 28 L 170 28 Z M 161 20 "/>
<path style="fill:none;stroke-width:0.75;stroke-linecap:butt;stroke-linejoin:miter;stroke:rgb(100%,0%,0%);stroke-opacity:1;stroke-dasharray:1,1;stroke-dashoffset:1;stroke-miterlimit:10;" d="M 130 30 L 161 20 "/>
<path style=" stroke:none;fill-rule:nonzero;fill:rgb(100%,0%,0%);fill-opacity:1;" d="M 0 230 L 0 240 L 3 238 L 6 242 L 8 242 L 5 238 L 9 238 Z M 0 230 "/>
<path style=" stroke:none;fill-rule:nonzero;fill:rgb(100%,0%,0%);fill-opacity:1;" d="M 20 222 L 20 232 L 23 230 L 26 234 L 28 234 L 25 230 L 29 230 Z M 20 222 "/>
<path style="fill:none;stroke-width:0.75;stroke-linecap:butt;stroke-linejoin:miter;stroke:rgb(100%,0%,0%);stroke-opacity:1;stroke-dasharray:1,1;stroke-dashoffset:1;stroke-miterlimit:10;" d="M 0 230 L 20 222 "/>
</g>
</svg>
