<?xml version="1.0" encoding="UTF-8"?>
<svg xmlns="http://www.w3.org/2000/svg" xmlns:xlink="http://www.w3.org/1999/xlink" width="110pt" height="30pt" viewBox="0 0 110 30" version="1.1">
<defs>
<clipPath id="clip1">
  <path d="M 0 0 L 110 0 L 110 20 L 0 20 Z M 0 0 "/>
</clipPath>
<clipPath id="clip2">
  <path d="M 0 0 L 100 0 L 100 20 L 0 20 Z M 0 0 "/>
</clipPath>
</defs>
<g id="surface2">
<g clip-path="url(#clip1)" clip-rule="nonzero">
<rect x="0" y="0" width="110" height="30" style="fill:rgb(38.039216%,50.588235%,100%);fill-opacity:0.490196;stroke:none;"/>
</g>
<g clip-path="url(#clip2)" clip-rule="nonzero">
<path style="fill:none;stroke-width:1;stroke-linecap:butt;stroke-linejoin:miter;stroke:rgb(66.666667%,0%,100%);stroke-opacity:0.490196;stroke-miterlimit:10;" d="M 0.5 16.550781 L 0.5 20 M 1.5 20 L 1.5 20 M 2.5 20 L 2.5 20 M 3.5 19.308594 L 3.5 20 M 4.5 15.171875 L 4.5 20 M 5.5 8.277344 L 5.5 20 M 6.5 4.828125 L 6.5 20 M 7.5 20 L 7.5 20 M 8.5 20 L 8.5 20 M 9.5 19.308594 L 9.5 20 M 10.5 17.929688 L 10.5 20 M 11.5 20 L 11.5 20 M 12.5 20 L 12.5 20 M 13.5 10.34375 L 13.5 20 M 14.5 8.277344 L 14.5 20 M 15.5 8.277344 L 15.5 20 M 16.5 0 L 16.5 20 M 17.5 6.898438 L 17.5 20 M 18.5 9.65625 L 18.5 20 M 19.5 12.414062 L 19.5 20 M 20.5 17.242188 L 20.5 20 M 21.5 15.863281 L 21.5 20 M 22.5 16.550781 L 22.5 20 M 23.5 17.929688 L 23.5 20 M 24.5 16.550781 L 24.5 20 M 25.5 20 L 25.5 20 M 26.5 20 L 26.5 20 M 27.5 19.308594 L 27.5 20 M 28.5 15.171875 L 28.5 20 M 29.5 8.277344 L 29.5 20 M 30.5 4.828125 L 30.5 20 M 31.5 20 L 31.5 20 M 32.5 20 L 32.5 20 M 33.5 19.308594 L 33.5 20 M 34.5 17.929688 L 34.5 20 M 35.5 20 L 35.5 20 M 36.5 20 L 36.5 20 M 37.5 10.34375 L 37.5 20 M 38.5 8.277344 L 38.5 20 M 39.5 8.277344 L 39.5 20 M 40.5 0 L 40.5 20 M 41.5 6.898438 L 41.5 20 M 42.5 9.65625 L 42.5 20 M 43.5 12.414062 L 43.5 20 M 44.5 17.242188 L 44.5 20 M 45.5 15.863281 L 45.5 20 M 46.5 16.550781 L 46.5 20 M 47.5 17.929688 L 47.5 20 M 48.5 16.550781 L 48.5 20 M 49.5 20 L 49.5 20 M 50.5 20 L 50.5 20 M 51.5 19.308594 L 51.5 20 M 52.5 15.171875 L 52.5 20 M 53.5 8.277344 L 53.5 20 M 54.5 4.828125 L 54.5 20 M 55.5 20 L 55.5 20 M 56.5 20 L 56.5 20 M 57.5 19.308594 L 57.5 20 M 58.5 17.929688 L 58.5 20 M 59.5 20 L 59.5 20 M 60.5 20 L 60.5 20 M 61.5 10.34375 L 61.5 20 M 62.5 8.277344 L 62.5 20 M 63.5 8.277344 L 63.5 20 M 64.5 0 L 64.5 20 M 65.5 6.898438 L 65.5 20 M 66.5 9.65625 L 66.5 20 M 67.5 12.414062 L 67.5 20 M 68.5 17.242188 L 68.5 20 M 69.5 15.863281 L 69.5 20 M 70.5 16.550781 L 70.5 20 M 71.5 17.929688 L 71.5 20 M 72.5 16.550781 L 72.5 20 M 73.5 20 L 73.5 20 M 74.5 20 L 74.5 20 M 75.5 19.308594 L 75.5 20 M 76.5 15.171875 L 76.5 20 M 77.5 8.277344 L 77.5 20 M 78.5 4.828125 L 78.5 20 M 79.5 20 L 79.5 20 M 80.5 20 L 80.5 20 M 81.5 19.308594 L 81.5 20 M 82.5 17.929688 L 82.5 20 M 83.5 20 L 83.5 20 M 84.5 20 L 84.5 20 M 85.5 10.34375 L 85.5 20 M 86.5 8.277344 L 86.5 20 M 87.5 8.277344 L 87.5 20 M 88.5 0 L 88.5 20 M 89.5 6.898438 L 89.5 20 M 90.5 9.65625 L 90.5 20 M 91.5 12.414062 L 91.5 20 M 92.5 17.242188 L 92.5 20 M 93.5 15.863281 L 93.5 20 M 94.5 16.550781 L 94.5 20 M 95.5 17.929688 L 95.5 20 M 96.5 16.550781 L 96.5 20 M 97.5 20 L 97.5 20 M 98.5 20 L 98.5 20 M 99.5 19.308594 L 99.5 20 "/>
</g>
</g>
</svg>
