<?xml version="1.0" encoding="UTF-8"?>
<svg xmlns="http://www.w3.org/2000/svg" xmlns:xlink="http://www.w3.org/1999/xlink" width="303pt" height="96pt" viewBox="0 0 303 96" version="1.1">
<defs>
<clipPath id="clip1">
  <path d="M 220 35 L 262 35 L 262 67 L 220 67 Z M 220 35 "/>
</clipPath>
<clipPath id="clip2">
  <path d="M 220.5 40.5 C 220.5 37.738281 222.738281 35.5 225.5 35.5 L 256.5 35.5 C 259.261719 35.5 261.5 37.738281 261.5 40.5 L 261.5 61.5 C 261.5 64.261719 259.261719 66.5 256.5 66.5 L 225.5 66.5 C 222.738281 66.5 220.5 64.261719 220.5 61.5 Z M 220.5 40.5 "/>
</clipPath>
<clipPath id="clip3">
  <path d="M 175 32 L 217 32 L 217 64 L 175 64 Z M 175 32 "/>
</clipPath>
<clipPath id="clip4">
  <path d="M 175.5 37.5 C 175.5 34.738281 177.738281 32.5 180.5 32.5 L 211.5 32.5 C 214.261719 32.5 216.5 34.738281 216.5 37.5 L 216.5 58.5 C 216.5 61.261719 214.261719 63.5 211.5 63.5 L 180.5 63.5 C 177.738281 63.5 175.5 61.261719 175.5 58.5 Z M 175.5 37.5 "/>
</clipPath>
</defs>
<g id="surface2">
<path style="fill:none;stroke-width:1.5;stroke-linecap:butt;stroke-linejoin:miter;stroke:rgb(0%,0%,0%);stroke-opacity:0.266667;stroke-dasharray:10,4;stroke-dashoffset:1;stroke-miterlimit:10;" d="M 175.75 0.75 L 302.25 0.75 L 302.25 95.25 L 175.75 95.25 Z M 175.75 0.75 "/>
<path style="fill:none;stroke-width:1.5;stroke-linecap:butt;stroke-linejoin:miter;stroke:rgb(0%,0%,0%);stroke-opacity:0.2;stroke-dasharray:10,4;stroke-dashoffset:1;stroke-miterlimit:10;" d="M 185 10 L 293 10 L 293 86 L 185 86 Z M 185 10 "/>
<path style="fill:none;stroke-width:0.75;stroke-linecap:butt;stroke-linejoin:miter;stroke:rgb(0%,0%,0%);stroke-opacity:0.1;stroke-miterlimit:10;" d="M 220 35 L 175 32 "/>
<path style="fill:none;stroke-width:0.75;stroke-linecap:butt;stroke-linejoin:miter;stroke:rgb(0%,0%,0%);stroke-opacity:0.1;stroke-miterlimit:10;" d="M 260 35 L 215 32 M 220 65 L 175 62 "/>
<path style="fill:none;stroke-width:0.75;stroke-linecap:butt;stroke-linejoin:miter;stroke:rgb(0%,0%,0%);stroke-opacity:0.1;stroke-miterlimit:10;" d="M 260 65 L 215 62 "/>
<g clip-path="url(#clip1)" clip-rule="nonzero">
<g clip-path="url(#clip2)" clip-rule="nonzero">
<rect x="0" y="0" width="303" height="96" style="fill:rgb(38.039216%,50.588235%,100%);fill-opacity:0.490196;stroke:none;"/>
<path style="fill:none;stroke-width:1;stroke-linecap:butt;stroke-linejoin:miter;stroke:rgb(38.039216%,50.588235%,100%);stroke-opacity:1;stroke-miterlimit:10;" d="M 0.5 5.5 C 0.5 2.738281 2.738281 0.5 5.5 0.5 L 36.5 0.5 C 39.261719 0.5 41.5 2.738281 41.5 5.5 L 41.5 26.5 C 41.5 29.261719 39.261719 31.5 36.5 31.5 L 5.5 31.5 C 2.738281 31.5 0.5 29.261719 0.5 26.5 Z M 0.5 5.5 " transform="matrix(1,0,0,1,220,35)"/>
</g>
</g>
<g clip-path="url(#clip3)" clip-rule="nonzero">
<g clip-path="url(#clip4)" clip-rule="nonzero">
<rect x="0" y="0" width="303" height="96" style="fill:rgb(38.039216%,50.588235%,100%);fill-opacity:0.490196;stroke:none;"/>
<path style="fill:none;stroke-width:1;stroke-linecap:butt;stroke-linejoin:miter;stroke:rgb(38.039216%,50.588235%,100%);stroke-opacity:1;stroke-miterlimit:10;" d="M 0.5 5.5 C 0.5 2.738281 2.738281 0.5 5.5 0.5 L 36.5 0.5 C 39.261719 0.5 41.5 2.738281 41.5 5.5 L 41.5 26.5 C 41.5 29.261719 39.261719 31.5 36.5 31.5 L 5.5 31.5 C 2.738281 31.5 0.5 29.261719 0.5 26.5 Z M 0.5 5.5 " transform="matrix(1,0,0,1,175,32)"/>
</g>
</g>
</g>
</svg>
