<?xml version="1.0" encoding="UTF-8" standalone="yes"?>
<svg xmlns="http://www.w3.org/2000/svg" width="256" height="256">
<path style="fill:#2f3541; stroke:none;" d="M116 18.4252C97.1316 20.9936 79.742 27.1553 64 38.0255C-11.8523 90.4031 12.1257 213.178 101 234.87C113.184 237.844 126.486 239.211 139 237.715C156.397 235.634 173.239 230.257 188 220.655C266.601 169.528 247.2 43.6343 155 21.1296C142.524 18.0845 128.793 16.6838 116 18.4252z"/>
<path style="fill:#515662; stroke:none;" d="M87 25L88 26L87 25M168 25L169 26L168 25M175 28L176 29L175 28M78 29L79 30L78 29M189 36L190 37L189 36M36 66L37 67L36 66M219 66L220 67L219 66M29 78L30 79L29 78M28 80L29 81L28 80M73 81L73 82L108 82L73 81M128 81L136 90L129 82L183 82L165 81L128 81z"/>
<path style="fill:#9196a2; stroke:none;" d="M73 82L73 174L74 174L74 110L73 82z"/>
<path style="fill:#d8dee8; stroke:none;" d="M74 82L74 174L127 174C117.822 161.017 95.3205 166 81 166L81 89L102.985 90.0278L115.35 104L146 142C146 123.682 131.073 110.853 120.21 97C116.853 92.7188 112.851 84.8184 107.7 82.6034C99.1305 78.9186 83.3239 82 74 82M129 82C138.178 94.9833 160.68 90 175 90L175 167L153.015 165.972L139.119 150L111 113L110 113C110 131.734 123.846 143.807 135 158C138.551 162.518 142.872 171.063 148.3 173.397C156.87 177.081 172.676 174 182 174L182 82L129 82z"/>
<path style="fill:#9196a2; stroke:none;" d="M182 82L182 174L183 174L183 110L182 82M109 83L110 84L109 83M110 84L111 85L110 84z"/>
<path style="fill:#515662; stroke:none;" d="M111 85L112 86L111 85M25 87L26 88L25 87z"/>
<path style="fill:#9196a2; stroke:none;" d="M112 87L113 88L112 87z"/>
<path style="fill:#515662; stroke:none;" d="M230 87L231 88L230 87z"/>
<path style="fill:#9196a2; stroke:none;" d="M113 88L114 89L113 88M81 89L81 166L82 166L82 90L104 90L81 89z"/>
<path style="fill:#515662; stroke:none;" d="M114 89L115 90L114 89M104 90L105 91L104 90M115 90L116 91L115 90z"/>
<path style="fill:#9196a2; stroke:none;" d="M174 90L174 166L152 166L152 167L175 167L175 114L174 90z"/>
<path style="fill:#515662; stroke:none;" d="M105 91L106 92L105 91z"/>
<path style="fill:#9196a2; stroke:none;" d="M106 92L107 93L106 92M116 92L117 93L116 92M107 93L108 94L107 93M117 93L118 94L117 93z"/>
<path style="fill:#515662; stroke:none;" d="M118 94L119 95L118 94M108 95L109 96L108 95M119 95L120 96L119 95z"/>
<path style="fill:#9196a2; stroke:none;" d="M109 96L110 97L109 96M119 96L120 97L119 96M110 97L111 98L110 97M120 97L121 98L120 97z"/>
<path style="fill:#515662; stroke:none;" d="M121 98L122 99L121 98M111 99L112 100L111 99M122 99L123 100L122 99M112 100L113 101L112 100z"/>
<path style="fill:#9196a2; stroke:none;" d="M113 101L114 102L113 101M123 101L124 102L123 101M114 102L115 103L114 102M124 102L125 103L124 102z"/>
<path style="fill:#515662; stroke:none;" d="M125 103L126 104L125 103M115 104L116 105L115 104M126 104L127 105L126 104z"/>
<path style="fill:#9196a2; stroke:none;" d="M116 105L117 106L116 105M126 105L127 106L126 105M117 106L118 107L117 106M127 106L128 107L127 106z"/>
<path style="fill:#515662; stroke:none;" d="M128 107L129 108L128 107M118 108L119 109L118 108M129 108L130 109L129 108M119 109L120 110L119 109z"/>
<path style="fill:#9196a2; stroke:none;" d="M120 110L121 111L120 110M130 110L131 111L130 110M121 111L122 112L121 111M131 111L132 112L131 111z"/>
<path style="fill:#515662; stroke:none;" d="M109 112L109 126L110 126L111 112L109 112M132 112L133 113L132 112M122 113L123 114L122 113M133 113L134 114L133 113z"/>
<path style="fill:#9196a2; stroke:none;" d="M111 114L112 115L111 114M123 114L124 115L123 114z"/>
<path style="fill:#515662; stroke:none;" d="M112 115L113 116L112 115z"/>
<path style="fill:#9196a2; stroke:none;" d="M124 115L125 116L124 115M134 115L135 116L134 115z"/>
<path style="fill:#515662; stroke:none;" d="M113 116L114 117L113 116z"/>
<path style="fill:#9196a2; stroke:none;" d="M135 116L136 117L135 116z"/>
<path style="fill:#515662; stroke:none;" d="M125 117L126 118L125 117M136 117L137 118L136 117z"/>
<path style="fill:#9196a2; stroke:none;" d="M114 118L115 119L114 118z"/>
<path style="fill:#515662; stroke:none;" d="M126 118L127 119L126 118z"/>
<path style="fill:#9196a2; stroke:none;" d="M115 119L116 120L115 119M127 119L128 120L127 119M137 119L138 120L137 119z"/>
<path style="fill:#515662; stroke:none;" d="M116 120L117 121L116 120z"/>
<path style="fill:#9196a2; stroke:none;" d="M138 120L139 121L138 120z"/>
<path style="fill:#515662; stroke:none;" d="M117 121L118 122L117 121M128 121L129 122L128 121M139 121L140 122L139 121z"/>
<path style="fill:#9196a2; stroke:none;" d="M117 122L118 123L117 122z"/>
<path style="fill:#515662; stroke:none;" d="M129 122L130 123L129 122M140 122L141 123L140 122z"/>
<path style="fill:#9196a2; stroke:none;" d="M118 123L119 124L118 123M130 123L131 124L130 123z"/>
<path style="fill:#515662; stroke:none;" d="M119 124L120 125L119 124z"/>
<path style="fill:#9196a2; stroke:none;" d="M131 124L132 125L131 124M141 124L142 125L141 124z"/>
<path style="fill:#515662; stroke:none;" d="M120 125L121 126L120 125z"/>
<path style="fill:#9196a2; stroke:none;" d="M142 125L143 126L142 125M110 126L111 127L110 126z"/>
<path style="fill:#515662; stroke:none;" d="M132 126L133 127L132 126M143 126L144 127L143 126z"/>
<path style="fill:#9196a2; stroke:none;" d="M111 127L112 128L111 127M121 127L122 128L121 127M133 127L134 128L133 127z"/>
<path style="fill:#515662; stroke:none;" d="M144 127L145 128L144 127z"/>
<path style="fill:#9196a2; stroke:none;" d="M122 128L123 129L122 128M134 128L135 129L134 128M144 128L145 129L144 128z"/>
<path style="fill:#515662; stroke:none;" d="M112 129L113 130L112 129M123 129L124 130L123 129z"/>
<path style="fill:#9196a2; stroke:none;" d="M145 129L146 130L145 129M113 130L114 131L113 130z"/>
<path style="fill:#515662; stroke:none;" d="M135 130L136 131L135 130M146 130L145 144C148.259 141.152 147.58 133.766 146 130z"/>
<path style="fill:#9196a2; stroke:none;" d="M114 131L115 132L114 131M124 131L125 132L124 131z"/>
<path style="fill:#515662; stroke:none;" d="M136 131L137 132L136 131z"/>
<path style="fill:#9196a2; stroke:none;" d="M125 132L126 133L125 132M137 132L138 133L137 132z"/>
<path style="fill:#515662; stroke:none;" d="M115 133L116 134L115 133M126 133L127 134L126 133z"/>
<path style="fill:#9196a2; stroke:none;" d="M138 133L139 134L138 133z"/>
<path style="fill:#515662; stroke:none;" d="M116 134L117 135L116 134M127 134L128 135L127 134z"/>
<path style="fill:#9196a2; stroke:none;" d="M117 135L118 136L117 135z"/>
<path style="fill:#515662; stroke:none;" d="M139 135L140 136L139 135z"/>
<path style="fill:#9196a2; stroke:none;" d="M118 136L119 137L118 136M128 136L129 137L128 136M140 136L141 137L140 136z"/>
<path style="fill:#515662; stroke:none;" d="M129 137L130 138L129 137z"/>
<path style="fill:#9196a2; stroke:none;" d="M141 137L142 138L141 137z"/>
<path style="fill:#515662; stroke:none;" d="M119 138L120 139L119 138M130 138L131 139L130 138M120 139L121 140L120 139M142 139L143 140L142 139z"/>
<path style="fill:#9196a2; stroke:none;" d="M121 140L122 141L121 140M131 140L132 141L131 140z"/>
<path style="fill:#515662; stroke:none;" d="M143 140L144 141L143 140z"/>
<path style="fill:#9196a2; stroke:none;" d="M132 141L133 142L132 141M144 141L145 142L144 141z"/>
<path style="fill:#515662; stroke:none;" d="M122 142L123 143L122 142M133 142L134 143L133 142z"/>
<path style="fill:#9196a2; stroke:none;" d="M145 142L146 143L145 142z"/>
<path style="fill:#515662; stroke:none;" d="M123 143L124 144L123 143M134 143L135 144L134 143z"/>
<path style="fill:#9196a2; stroke:none;" d="M124 144L125 145L124 144M134 144L135 145L134 144M125 145L126 146L125 145M135 145L136 146L135 145z"/>
<path style="fill:#515662; stroke:none;" d="M136 146L137 147L136 146M126 147L127 148L126 147M137 147L138 148L137 147M127 148L128 149L127 148z"/>
<path style="fill:#9196a2; stroke:none;" d="M128 149L129 150L128 149M138 149L139 150L138 149M129 150L130 151L129 150M139 150L140 151L139 150z"/>
<path style="fill:#515662; stroke:none;" d="M140 151L141 152L140 151M130 152L131 153L130 152z"/>
<path style="fill:#9196a2; stroke:none;" d="M131 153L132 154L131 153M141 153L142 154L141 153M132 154L133 155L132 154M142 154L143 155L142 154z"/>
<path style="fill:#515662; stroke:none;" d="M143 155L144 156L143 155M133 156L134 157L133 156M144 156L145 157L144 156M134 157L135 158L134 157z"/>
<path style="fill:#9196a2; stroke:none;" d="M135 158L136 159L135 158M145 158L146 159L145 158M136 159L137 160L136 159M146 159L147 160L146 159z"/>
<path style="fill:#515662; stroke:none;" d="M147 160L148 161L147 160M137 161L138 162L137 161z"/>
<path style="fill:#9196a2; stroke:none;" d="M138 162L139 163L138 162M148 162L149 163L148 162M139 163L140 164L139 163M149 163L150 164L149 163z"/>
<path style="fill:#515662; stroke:none;" d="M150 164L151 165L150 164M140 165L141 166L140 165M151 165L152 166L151 165M120 166L121 167L120 166M141 166L142 167L141 166M121 167L122 168L121 167z"/>
<path style="fill:#9196a2; stroke:none;" d="M142 167L143 168L142 167z"/>
<path style="fill:#515662; stroke:none;" d="M122 168L123 169L122 168z"/>
<path style="fill:#9196a2; stroke:none;" d="M143 168L144 169L143 168z"/>
<path style="fill:#515662; stroke:none;" d="M230 168L231 169L230 168M123 169L124 170L123 169M124 170L125 171L124 170M144 170L145 171L144 170M125 171L126 172L125 171M145 171L146 172L145 171M126 172L127 173L126 172z"/>
<path style="fill:#9196a2; stroke:none;" d="M146 172L147 173L146 172z"/>
<path style="fill:#515662; stroke:none;" d="M127 173C111.18 177.676 89.5153 174 73 174L73 175L115 175L127 173M148 174L148 175L183 175L148 174M36 189L37 190L36 189M219 189L220 190L219 189M189 219L190 220L189 219M175 227L176 228L175 227M87 230L88 231L87 230z"/>
</svg>