<?xml version="1.0" encoding="utf-8"?>
<!-- Svg Vector Icons : http://www.onlinewebfonts.com/icon -->
<!DOCTYPE svg PUBLIC "-//W3C//DTD SVG 1.1//EN" "http://www.w3.org/Graphics/SVG/1.1/DTD/svg11.dtd">
<svg version="1.1" xmlns="http://www.w3.org/2000/svg" xmlns:xlink="http://www.w3.org/1999/xlink" x="0px" y="0px" viewBox="0 0 1000 1000" enable-background="new 0 0 1000 1000" xml:space="preserve">
<metadata> Svg Vector Icons : http://www.onlinewebfonts.com/icon </metadata>
<g><g transform="translate(0.000000,512.000000) scale(0.100000,-0.100000)"><path fill="#ffffff" d="M4772.1,4990.3c-241.5-65.2-479.1-254.9-586.5-469.6c-111.2-218.5-132.2-511.7-49.8-726.3c26.8-69,30.7-99.7,15.3-105.4c-155.2-42.2-368-130.3-536.6-214.6c-576.9-295.1-1000.4-766.6-1241.9-1383.7c-151.4-387.1-312.4-1117.3-402.5-1822.6c-105.4-837.5-283.6-1401-546.2-1728.7c-47.9-61.3-187.8-191.7-310.5-289.4c-272.1-218.5-354.6-306.6-427.4-460c-86.2-184-122.7-373.7-122.7-645.9c0-362.2,80.5-561.5,268.3-659.3c74.7-40.2,99.7-40.2,1504.5-46l1429.7-3.8l21.1-151.4c44.1-295.1,147.6-505.9,350.7-711c145.7-143.7,283.6-231.9,483-302.8c122.7-44.1,168.6-49.8,379.5-49.8c210.8,0,256.8,5.8,379.5,49.8c381.4,138,655.4,412,776.2,781.9c26.8,78.6,53.7,197.4,61.3,262.6l13.4,120.7l1429.7,3.8c1408.6,5.8,1433.5,5.8,1508.3,46c99.7,51.7,191.7,174.4,233.8,310.5c49.8,159.1,44.1,573.1-9.6,774.3c-80.5,293.2-164.8,406.3-507.9,682.3c-126.5,99.7-266.4,230-314.3,289.4c-253,320.1-454.2,958.3-542.4,1726.8c-67.1,580.7-239.6,1393.3-373.7,1757.4c-289.4,778.1-877.8,1353-1653.9,1615.6c-109.2,36.4-164.8,65.2-159.1,80.5c42.1,126.5,76.7,289.4,76.7,362.2C5925.8,4681.8,5343.2,5143.7,4772.1,4990.3z M5122.8,4380.9c124.6-51.8,203.1-205.1,176.3-346.9c-17.2-92-139.9-214.7-230-231.9c-113.1-19.2-197.4,5.8-279.8,88.2C4549.8,4129.8,4810.4,4511.2,5122.8,4380.9z M5435.2,3152.4c362.2-59.4,699.5-201.2,979.3-412.1c314.3-237.6,550-578.8,691.9-1008.1c122.6-371.8,258.7-1042.6,325.8-1627.1c51.7-442.7,111.2-714.9,245.3-1130.7c178.2-553.9,390.9-864.3,831.7-1207.4c111.2-88.2,216.6-182.1,235.7-208.9c42.1-67.1,88.2-268.3,88.2-398.6v-111.2H4998.2H1161.4l11.5,166.7c11.5,178.2,49.8,314.3,105.4,375.6c17.3,21.1,99.7,88.1,180.2,149.5c544.3,415.9,757,774.3,983.2,1655.9c63.2,247.2,93.9,429.3,153.3,929.5c55.6,452.3,220.4,1205.5,325.8,1489.1c281.7,745.5,845.2,1199.7,1657.8,1337.7C4779.7,3186.9,5222.4,3186.9,5435.2,3152.4z M5605.7-3645.4c-32.6-201.2-159.1-373.7-343-469.5c-84.3-44.1-124.6-51.7-262.6-53.7c-149.5,0-172.5,5.7-283.6,65.2c-174.4,95.8-289.4,258.7-322,458l-13.4,80.5h619h619L5605.7-3645.4z"/></g></g>
</svg>